<?xml version="1.0" encoding="UTF-8"?>
<svg id="b" data-name="Ebene 2" xmlns="http://www.w3.org/2000/svg" viewBox="0 0 355.65 96.36">
  <defs>
    <style>
      .d {
        fill: #0075be;
      }
    </style>
  </defs>
  <g id="c" data-name="Ebene 1">
    <g>
      <g>
        <path d="M67.06,48.58c1.72,8.49,5.83,14.72,15.12,14.72,7.29,0,12.99-3.98,12.99-11.67,0-8.49-7.16-10.61-13.92-13.39-10.08-4.24-19.62-6.89-19.62-19.89C61.62,6.67,71.03.18,81.91.18c11.54,0,18.3,6.63,21.08,17.37l-8.49,2.52c-1.59-6.76-5.17-11.54-12.73-11.54-5.7,0-11.27,2.92-11.27,9.15s3.98,8.35,9.28,10.74l14.72,6.5c6.23,3.45,9.55,9.02,9.55,16.18,0,13.13-9.15,20.55-21.88,20.55s-20.95-8.22-23.07-20.55l7.96-2.52Z"/>
        <path d="M109.79,1.37h8.88v28.64h27.32V1.37h8.88v69.08h-8.88v-32.49h-27.32v32.49h-8.88V1.37Z"/>
        <path d="M209.23,35.98c0,5.57-.4,35.67-24.53,35.67-11.14,0-24.53-7.96-24.53-35.67S173.3.18,184.7.18s24.53,7.96,24.53,35.8ZM169.45,35.98c0,10.08,1.86,27.32,15.25,27.32s15.25-17.24,15.25-27.32-1.86-27.45-15.25-27.45-15.25,17.24-15.25,27.45Z"/>
        <path d="M215.58,1.37h23.47c11.54,0,20.69,5.44,20.69,18.83,0,8.49-5.7,16.84-14.05,19.36l16.97,27.98-7.69,4.64-17.64-31.29h-12.86v29.57h-8.88V1.37ZM236.14,32.93c8.62,0,14.32-4.91,14.32-12.73,0-6.23-3.71-10.87-11.67-10.87h-14.32v23.6h11.67Z"/>
        <path d="M281.43,9.33h-19.09V1.37h46.67v7.96h-18.7v61.13h-8.88V9.33Z"/>
        <path d="M318.65,48.58c1.72,8.49,5.83,14.72,15.12,14.72,7.29,0,13-3.98,13-11.67,0-8.49-7.16-10.61-13.92-13.39-10.08-4.24-19.62-6.89-19.62-19.89,0-11.67,9.41-18.17,20.29-18.17,11.54,0,18.3,6.63,21.08,17.37l-8.49,2.52c-1.59-6.76-5.17-11.54-12.73-11.54-5.7,0-11.27,2.92-11.27,9.15s3.98,8.35,9.28,10.74l14.72,6.5c6.23,3.45,9.55,9.02,9.55,16.18,0,13.13-9.15,20.55-21.88,20.55s-20.95-8.22-23.07-20.55l7.96-2.52Z"/>
      </g>
      <g>
        <path d="M67.32,92.48c-.91,1.24-2,2.04-3.76,2.04-3.31,0-4.35-2.62-4.35-5.04,0-3.9,2.39-5.06,4.22-5.06s2.78.79,3.59,2.08l-1.33.58c-.48-.79-1.13-1.48-2.24-1.48-2.26,0-2.72,2.36-2.72,3.86s.41,3.88,2.72,3.88c1.33,0,2-.69,2.67-1.57l1.2.71Z"/>
        <path d="M70.16,84.59h1.46v4.05h4.48v-4.05h1.46v9.76h-1.46v-4.59h-4.48v4.59h-1.46v-9.76Z"/>
        <path d="M82.69,91.69l-1.07,2.9-1.44-.45,3.57-9.56h1.87l3.57,9.56-1.44.45-1.04-2.9h-4.02ZM84.69,86.05l-1.61,4.52h3.22l-1.61-4.52Z"/>
        <path d="M91.78,84.59h1.8l4.39,8.23.04-.04-.13-2.53v-5.66h1.46v9.76h-1.8l-4.39-8.23-.04.04.13,2.55v5.64h-1.46v-9.76Z"/>
        <path d="M110.2,93.45c-.94.64-2.33,1.07-3.48,1.07-3.33,0-4.28-2.66-4.28-5.06s1-5.04,4.24-5.04c1.52,0,2.85.77,3.63,1.87l-1.24.69c-.54-.79-1.37-1.39-2.48-1.39-2.24,0-2.63,2.42-2.63,3.9s.39,3.84,2.67,3.84c.74,0,1.48-.17,2.11-.51v-2.57h-2.72v-1.12h4.17v4.31Z"/>
        <path d="M113.76,84.59h7.07v1.12h-5.61v2.92h4.63v1.12h-4.63v3.47h5.61v1.12h-7.07v-9.76Z"/>
        <path d="M141.62,84.34l1.37.62-3.67,5.62v3.77h-1.46v-3.77l-3.65-5.62,1.37-.62,3.02,5.02,3.02-5.02Z"/>
        <path d="M152.89,89.48c0,.79-.07,5.04-4.02,5.04-1.83,0-4.02-1.12-4.02-5.04s2.15-5.06,4.02-5.06,4.02,1.12,4.02,5.06ZM146.37,89.48c0,1.42.3,3.86,2.5,3.86s2.5-2.44,2.5-3.86-.3-3.88-2.5-3.88-2.5,2.44-2.5,3.88Z"/>
        <path d="M157.48,84.59v6.65c0,1.42.48,2.1,1.98,2.1,1.83,0,2.22-.69,2.22-2.1v-6.65h1.46v7.25c0,1.29-1.07,2.68-3.57,2.68s-3.54-1.33-3.54-2.75v-7.18h1.46Z"/>
        <path d="M166.86,84.59h3.85c1.89,0,3.39.77,3.39,2.66,0,1.2-.93,2.38-2.3,2.74l2.78,3.95-1.26.66-2.89-4.42h-2.11v4.18h-1.46v-9.76ZM170.23,89.05c1.41,0,2.35-.69,2.35-1.8,0-.88-.61-1.54-1.91-1.54h-2.35v3.33h1.91Z"/>
        <path d="M189.5,91.26c.28,1.2.96,2.08,2.48,2.08,1.2,0,2.13-.56,2.13-1.65,0-1.2-1.17-1.5-2.28-1.89-1.65-.6-3.22-.97-3.22-2.81,0-1.65,1.54-2.57,3.33-2.57,1.89,0,3,.94,3.46,2.45l-1.39.36c-.26-.96-.85-1.63-2.09-1.63-.93,0-1.85.41-1.85,1.29s.65,1.18,1.52,1.52l2.41.92c1.02.49,1.57,1.27,1.57,2.29,0,1.85-1.5,2.9-3.59,2.9s-3.44-1.16-3.78-2.9l1.3-.36Z"/>
        <path d="M198.76,84.59h1.46v4.05h4.48v-4.05h1.46v9.76h-1.46v-4.59h-4.48v4.59h-1.46v-9.76Z"/>
        <path d="M217.29,89.48c0,.79-.07,5.04-4.02,5.04-1.83,0-4.02-1.12-4.02-5.04s2.15-5.06,4.02-5.06,4.02,1.12,4.02,5.06ZM210.77,89.48c0,1.42.3,3.86,2.5,3.86s2.5-2.44,2.5-3.86-.3-3.88-2.5-3.88-2.5,2.44-2.5,3.88Z"/>
        <path d="M220.58,84.59h3.85c1.89,0,3.39.77,3.39,2.66,0,1.2-.94,2.38-2.3,2.74l2.78,3.95-1.26.66-2.89-4.42h-2.11v4.18h-1.46v-9.76ZM223.95,89.05c1.41,0,2.35-.69,2.35-1.8,0-.88-.61-1.54-1.91-1.54h-2.35v3.33h1.91Z"/>
        <path d="M233.63,85.71h-3.13v-1.12h7.65v1.12h-3.07v8.64h-1.46v-8.64Z"/>
        <path d="M242.1,91.26c.28,1.2.96,2.08,2.48,2.08,1.2,0,2.13-.56,2.13-1.65,0-1.2-1.17-1.5-2.28-1.89-1.65-.6-3.22-.97-3.22-2.81,0-1.65,1.54-2.57,3.33-2.57,1.89,0,3,.94,3.46,2.45l-1.39.36c-.26-.96-.85-1.63-2.09-1.63-.93,0-1.85.41-1.85,1.29s.65,1.18,1.52,1.52l2.41.92c1.02.49,1.57,1.27,1.57,2.29,0,1.85-1.5,2.9-3.59,2.9s-3.44-1.16-3.78-2.9l1.3-.36Z"/>
        <path d="M263.1,84.59h7.07v1.12h-5.61v2.92h4.63v1.12h-4.63v3.47h5.61v1.12h-7.07v-9.76Z"/>
        <path d="M280.25,84.34l1.39.45-4.35,9.8h-.26l-4.35-9.8,1.39-.45,3.09,7.16,3.09-7.16Z"/>
        <path d="M284.56,84.59h7.07v1.12h-5.61v2.92h4.63v1.12h-4.63v3.47h5.61v1.12h-7.07v-9.76Z"/>
        <path d="M294.72,84.59h3.85c1.89,0,3.39.77,3.39,2.66,0,1.2-.93,2.38-2.3,2.74l2.78,3.95-1.26.66-2.89-4.42h-2.11v4.18h-1.46v-9.76ZM298.09,89.05c1.41,0,2.35-.69,2.35-1.8,0-.88-.61-1.54-1.91-1.54h-2.35v3.33h1.91Z"/>
        <path d="M311.57,84.34l1.37.62-3.67,5.62v3.77h-1.46v-3.77l-3.65-5.62,1.37-.62,3.02,5.02,3.02-5.02Z"/>
        <path d="M326.35,84.59h3.78c3.22,0,4.67,1.14,4.67,4.76,0,3.05-.61,5-4.67,5h-3.78v-1.12h1.17v-7.51h-1.17v-1.12ZM328.98,93.23h1.54c1.91,0,2.76-.94,2.76-3.75,0-3-1-3.77-2.81-3.77h-1.5v7.51Z"/>
        <path d="M339.04,91.69l-1.07,2.9-1.43-.45,3.57-9.56h1.87l3.57,9.56-1.44.45-1.04-2.9h-4.02ZM341.04,86.05l-1.61,4.52h3.22l-1.61-4.52Z"/>
        <path d="M353.64,84.34l1.37.62-3.67,5.62v3.77h-1.46v-3.77l-3.65-5.62,1.37-.62,3.02,5.02,3.02-5.02Z"/>
      </g>
      <path class="d" d="M45.2,8.5H0V0h61.15L11.34,96.36l-9.86-3.83L45.2,8.5Z"/>
    </g>
  </g>
</svg>